# xmcd
#
# Track frame offsets: 
#        150
#        18314
#        29614
#        50114
#        64639
#        81596
#        93778
#        109611
#        127293
#        147606
#        160850
#        172373
#        190117
#        204827
#        221036
#        239925
#        255384
#        267976
#        275543
#
# Disc length: 3873 seconds
#
# Revision: 2
# Processed by: cddbd v1.4PL0 Copyright (c) Steve Scherf et al.
# Submitted via: ExactAudioCopy v0.90b4
#
DISCID=2b0f1f13
DTITLE=Various Artist - Promo Only Country Radio October 2001
DYEAR=2001
DGENRE=Country
TTITLE0=George Strait - Run
TTITLE1=Diamond Rio - That's Just That
TTITLE2=David Ball - Riding With Private Malone
TTITLE3=Blake Shelton - All Over Me
TTITLE4=Aaron Tippin - Where The Stars And Stripes And The Eagles Fly
TTITLE5=Darryl Worley - Sideways
TTITLE6=Clint Black With Lisa Hartman Black - Easy For Me To Say
TTITLE7=The Clark Family Experience - To Quote Shakespeare
TTITLE8=Mike Walker - Stones In The Road
TTITLE9=Eric Horner - We Will Stand
TTITLE10=Patty Loveless - The Boys Are Back In Town
TTITLE11=John Berry - How Much Do You Love Me?
TTITLE12=Steve Azar - I Don't Have To Be Me ('til Monday)
TTITLE13=Lyle Lovett - San Antonio Girl
TTITLE14=Perfect Stranger - The Hits
TTITLE15=Robin English - Girl In Love
TTITLE16=Charlie Allen - It Won't Shut Up
TTITLE17=Marshall Dyllon - The Star Spangled Banner
TTITLE18=Charlie Daniels Band - In America (Live Version)
EXTD=
EXTT0=
EXTT1=
EXTT2=
EXTT3=
EXTT4=
EXTT5=
EXTT6=
EXTT7=
EXTT8=
EXTT9=
EXTT10=
EXTT11=
EXTT12=
EXTT13=
EXTT14=
EXTT15=
EXTT16=
EXTT17=
EXTT18=
PLAYORDER=
